<?xml version="1.0" standalone="no"?>
<!DOCTYPE svg PUBLIC "-//W3C//DTD SVG 20010904//EN"
 "http://www.w3.org/TR/2001/REC-SVG-20010904/DTD/svg10.dtd">
<svg version="1.0" xmlns="http://www.w3.org/2000/svg"
 width="86.000000pt" height="86.000000pt" viewBox="0 0 86.000000 86.000000"
 preserveAspectRatio="xMidYMid meet">
<metadata>
Created by potrace 1.11, written by Peter Selinger 2001-2013
</metadata>
<g transform="translate(0.000000,86.000000) scale(0.100000,-0.100000)"
fill="#000000" stroke="none">
<path d="M303 661 c-24 -55 -43 -104 -43 -110 0 -6 18 -11 40 -11 22 0 40 -4
40 -8 0 -5 -16 -46 -36 -92 -39 -90 -37 -100 20 -100 18 0 27 -4 24 -12 -41
-110 -69 -211 -61 -219 11 -11 305 330 296 343 -2 5 -22 8 -44 8 -21 0 -39 3
-39 6 0 4 23 37 50 74 28 37 50 73 50 79 0 6 -13 11 -30 11 -16 0 -30 4 -30 8
0 5 14 28 30 50 50 70 48 72 -97 72 l-128 0 -42 -99z"/>
<path d="M106 712 c-7 -11 31 -48 41 -38 4 3 -2 16 -14 27 -11 12 -23 17 -27
11z"/>
<path d="M705 700 c-25 -27 -10 -39 16 -13 12 11 17 23 11 27 -5 3 -17 -3 -27
-14z"/>
<path d="M50 450 c0 -5 14 -10 30 -10 17 0 30 5 30 10 0 6 -13 10 -30 10 -16
0 -30 -4 -30 -10z"/>
<path d="M730 440 c0 -5 14 -10 30 -10 17 0 30 5 30 10 0 6 -13 10 -30 10 -16
0 -30 -4 -30 -10z"/>
<path d="M115 200 c-14 -16 -15 -20 -4 -20 16 0 39 19 39 32 0 14 -16 9 -35
-12z"/>
<path d="M690 212 c0 -13 23 -32 39 -32 11 0 10 4 -4 20 -19 21 -35 26 -35 12z"/>
</g>
</svg>
