<?xml version="1.0" standalone="no"?>
<!DOCTYPE svg PUBLIC "-//W3C//DTD SVG 20010904//EN"
 "http://www.w3.org/TR/2001/REC-SVG-20010904/DTD/svg10.dtd">
<svg version="1.0" xmlns="http://www.w3.org/2000/svg"
 width="86.000000pt" height="86.000000pt" viewBox="0 0 86.000000 86.000000"
 preserveAspectRatio="xMidYMid meet">
<metadata>
Created by potrace 1.11, written by Peter Selinger 2001-2013
</metadata>
<g transform="translate(0.000000,86.000000) scale(0.100000,-0.100000)"
fill="#000000" stroke="none">
<path d="M347 753 c-8 -14 -87 -202 -87 -207 0 -4 18 -6 40 -6 26 0 40 -5 40
-12 -1 -7 -16 -49 -35 -93 l-34 -80 40 -3 c23 -2 39 -8 39 -16 0 -6 -16 -59
-35 -116 -40 -120 -39 -112 -21 -108 16 4 286 322 286 337 0 5 -21 11 -46 13
l-45 3 55 74 c31 41 56 78 56 82 0 4 -16 9 -35 11 l-35 3 35 52 c19 29 35 57
35 63 0 12 -246 14 -253 3z"/>
<path d="M110 713 c0 -5 9 -18 20 -28 11 -10 20 -14 20 -8 0 5 -9 18 -20 28
-11 10 -20 14 -20 8z"/>
<path d="M705 700 c-10 -11 -13 -20 -8 -20 13 0 38 29 31 35 -3 3 -13 -4 -23
-15z"/>
<path d="M55 450 c3 -5 17 -10 31 -10 13 0 24 5 24 10 0 6 -14 10 -31 10 -17
0 -28 -4 -24 -10z"/>
<path d="M730 440 c0 -5 11 -10 24 -10 14 0 28 5 31 10 4 6 -7 10 -24 10 -17
0 -31 -4 -31 -10z"/>
<path d="M122 208 c-14 -14 -16 -28 -2 -28 5 0 14 9 20 20 12 22 1 27 -18 8z"/>
<path d="M700 200 c11 -20 30 -28 30 -12 0 11 -22 32 -32 32 -5 0 -4 -9 2 -20z"/>
</g>
</svg>
